<?xml version="1.0" encoding="iso-8859-1"?>
<!-- Generator: Adobe Illustrator 19.0.0, SVG Export Plug-In . SVG Version: 6.00 Build 0)  -->
<svg version="1.1" id="Layer_1" xmlns="http://www.w3.org/2000/svg" xmlns:xlink="http://www.w3.org/1999/xlink" x="0px" y="0px"
	 viewBox="0 0 512 512" style="enable-background:new 0 0 512 512;" xml:space="preserve">
<rect x="64" width="384" height="512"/>
<path style="fill:#5B5C5F;" d="M441,505.032H71V6.976h370V505.032z M75,501.032h362V10.976H75V501.032z"/>
<rect x="255.984" y="232.24" style="fill:#FFFFFF;" width="51.864" height="12"/>
<g>
	<rect x="134.984" y="232.24" style="fill:#C1C1C1;" width="69.144" height="12"/>
	<rect x="134.984" y="163.12" style="fill:#C1C1C1;" width="69.144" height="12"/>
</g>
<rect x="238.712" y="163.12" style="fill:#6B6B6B;" width="69.152" height="12"/>
<g>
	<rect x="325.152" y="163.12" style="fill:#C1C1C1;" width="69.152" height="12"/>
	<rect x="377.04" y="197.696" style="fill:#C1C1C1;" width="34.568" height="12"/>
	<rect x="290.56" y="197.696" style="fill:#C1C1C1;" width="34.576" height="12"/>
</g>
<g>
	<rect x="154.576" y="197.696" style="fill:#FFFFFF;" width="65" height="12"/>
	<rect x="377.04" y="128.56" style="fill:#FFFFFF;" width="34.568" height="12"/>
</g>
<rect x="290.56" y="128.56" style="fill:#C1C1C1;" width="34.576" height="12"/>
<rect x="134.984" y="128.56" style="fill:#FFFFFF;" width="103.72" height="12"/>
<rect x="325.152" y="59.4" style="fill:#6B6B6B;" width="86.432" height="12"/>
<rect x="255.984" y="59.4" style="fill:#FFFFFF;" width="34.584" height="12"/>
<g>
	<rect x="117.696" y="59.4" style="fill:#C1C1C1;" width="103.72" height="12"/>
	<rect x="342.432" y="93.976" style="fill:#C1C1C1;" width="69.152" height="12"/>
	<rect x="273.28" y="93.976" style="fill:#C1C1C1;" width="34.576" height="12"/>
</g>
<rect x="100.424" y="93.976" style="fill:#6B6B6B;" width="103.704" height="12"/>
<rect x="255.984" y="440.64" style="fill:#FFFFFF;" width="51.864" height="12"/>
<g>
	<rect x="134.984" y="440.64" style="fill:#C1C1C1;" width="69.144" height="12"/>
	<rect x="134.984" y="371.44" style="fill:#C1C1C1;" width="69.144" height="12"/>
</g>
<rect x="238.712" y="371.44" style="fill:#6B6B6B;" width="69.152" height="12"/>
<g>
	<rect x="325.152" y="371.44" style="fill:#C1C1C1;" width="69.152" height="12"/>
	<rect x="377.04" y="406.024" style="fill:#C1C1C1;" width="34.568" height="12"/>
	<rect x="290.56" y="406.024" style="fill:#C1C1C1;" width="34.576" height="12"/>
</g>
<g>
	<rect x="154.576" y="406.024" style="fill:#FFFFFF;" width="65" height="12"/>
	<rect x="377.04" y="336.88" style="fill:#FFFFFF;" width="34.568" height="12"/>
</g>
<rect x="290.56" y="336.88" style="fill:#C1C1C1;" width="34.576" height="12"/>
<rect x="134.984" y="336.88" style="fill:#FFFFFF;" width="103.72" height="12"/>
<rect x="325.152" y="267.736" style="fill:#6B6B6B;" width="86.432" height="12"/>
<rect x="255.984" y="267.736" style="fill:#FFFFFF;" width="34.584" height="12"/>
<g>
	<rect x="117.696" y="267.736" style="fill:#C1C1C1;" width="103.72" height="12"/>
	<rect x="342.432" y="302.304" style="fill:#C1C1C1;" width="69.152" height="12"/>
	<rect x="273.28" y="302.304" style="fill:#C1C1C1;" width="34.576" height="12"/>
</g>
<rect x="100.424" y="302.304" style="fill:#6B6B6B;" width="103.704" height="12"/>
<g>
</g>
<g>
</g>
<g>
</g>
<g>
</g>
<g>
</g>
<g>
</g>
<g>
</g>
<g>
</g>
<g>
</g>
<g>
</g>
<g>
</g>
<g>
</g>
<g>
</g>
<g>
</g>
<g>
</g>
</svg>
