<svg style="enable-background:new 0 0 512 512" version="1.1" viewBox="0 0 512 512" xml:space="preserve" xmlns="http://www.w3.org/2000/svg">
<rect x="64" width="384" height="512"/>
<path d="m441 505.03h-370v-498.06h370zm-366-4h362v-490.06h-362z" style="fill:#5b5c5f"/><rect x="346.17" y="59.7" width="69.152" height="12" style="fill:#6b6b6b"/><rect x="117.7" y="59.4" width="103.72" height="12" style="fill:#c1c1c1"/><rect x="240.96" y="59.233" width="34.576" height="12" style="fill:#c1c1c1"/><rect x="100.42" y="93.976" width="103.7" height="12" style="fill:#6b6b6b"/><rect x="293.15" y="60.088" width="34.584" height="12" style="fill:#fff"/><rect x="329.15" y="94.088" width="34.584" height="12" style="fill:#fff"/><rect x="380.96" y="93.233" width="34.576" height="12" style="fill:#c1c1c1"/><rect x="101.15" y="128.09" width="34.584" height="12" style="fill:#fff"/><rect x="148.94" y="127.52" width="103.72" height="12" style="fill:#c1c1c1"/><rect x="213.15" y="94.088" width="34.584" height="12" style="fill:#fff"/><rect x="265.15" y="94.088" width="34.584" height="12" style="fill:#6b6b6b"/><rect x="265.15" y="128.09" width="34.584" height="12" style="fill:#fff"/></svg>
